<svg viewBox="0 0 96 96" xmlns="http://www.w3.org/2000/svg" xmlns:xlink="http://www.w3.org/1999/xlink" id="Icons_Brain" overflow="hidden"><path d="M86 55.1C88.9 50.9 88.7 45.2 85.5 41.2 85.9 40 86.1 38.8 86.1 37.6 86.1 31.9 82 27.1 76.5 26 74.8 21.1 70.3 17.9 65.1 17.9 64.2 17.9 63.2 18 62.3 18.2 60.2 15.7 57.1 14.2 53.9 13.9 50.6 13.7 47.4 14.8 45 17 41.9 14.9 38 14.3 34.5 15.4 30.9 16.5 28.1 19.2 26.8 22.8 26.6 22.8 26.3 22.8 26.1 22.8 19.5 22.8 14.2 28 14.1 34.6 14.1 34.8 14.1 35 14.1 35.2 10.1 37.4 7.8 41.7 8.1 46.3 8.5 52.6 14.1 57.3 20.5 57.3L36 57.3C42.6 57.3 48 62.6 48.1 69.2L48.1 82 56 82 56 73C56 72.6 56 72.1 56 71.7 56 68 55.9 63.3 58.5 60.3 60.1 58.6 61.9 57.1 63.8 55.8 65.3 54.9 66.6 53.8 67.7 52.5 68.2 51.7 68.7 50.9 69 50.1 66.9 49.3 64.7 49 62.5 49.3 61.4 49.4 60.4 48.7 60.2 47.6 60.1 46.5 60.8 45.5 61.9 45.3 64.6 44.9 67.3 45.2 69.9 46.2 69.9 45.9 69.9 45.7 70 45.4 70.1 43.8 69.9 42.2 69.4 40.7 68 37.1 64.5 35.5 61.2 34.2 60.6 34 60 33.8 59.2 33.6L58.6 33.4 58.5 33.4C57.7 33.5 57 33.7 56.2 34L55.3 34.2 54.3 34.4C52.6 36.4 51.7 39 51.9 41.7 52.1 44.4 53.4 46.8 55.4 48.5 56.2 49.2 56.2 50.4 55.6 51.3 55 52 53.8 52.1 53 51.5 51.8 50.5 50.8 49.2 50 47.8L49.8 47.8C47 47.3 43.8 46.8 41.2 45.1 40.3 44.5 40.1 43.3 40.7 42.4 41.3 41.5 42.5 41.2 43.4 41.8 44.9 42.7 46.6 43.3 48.4 43.5 48.2 43 48.1 42.5 48 41.9 47.8 39.7 48.2 37.4 49.1 35.4 47.7 35.6 46.4 35.7 45 35.7 43.8 35.7 42.6 35.6 41.4 35.4 39.2 38.1 36.1 40.1 32.7 40.9 28.2 43.2 24 46.1 24 51 24 52.1 23.1 53 22 53 20.9 53 20 52.1 20 51 20.1 47.2 21.8 43.7 24.7 41.3 22.3 41 20.1 40 18.5 38.2 17.8 37.3 18 36.1 18.8 35.4 19.6 34.7 20.9 34.8 21.6 35.6 22.4 36.6 24.7 37.5 28 37.4 31.3 37.4 34.6 36.2 37.1 34 34.2 32.8 31.8 30.6 30.3 27.8 29.7 26.8 30.1 25.6 31 25.1 32 24.5 33.2 24.9 33.7 25.8 36.7 31.2 43 32.7 52.9 30.4 51.1 28.9 49.8 26.5 49.9 22.7 49.9 21.6 50.9 20.7 52 20.8 53.1 20.8 54 21.8 53.9 22.9 53.7 27.4 56.2 28.3 60.2 29.5 60.8 29.7 61.4 29.8 62 30 63.1 27.5 65.3 25.6 68 24.9 69.1 24.6 70.2 25.3 70.5 26.4 70.8 27.5 70.1 28.6 69 28.9 67.6 29.3 66.5 30.2 65.8 31.5 65.8 31.6 65.8 31.6 65.8 31.7 68.9 33.2 71.6 35.4 73 39.1 73.3 39.9 73.5 40.7 73.6 41.5 74 41.2 74.3 40.8 74.5 40.3 75.2 38.8 75.7 37.3 75.9 35.6 76 34.9 76.5 34.3 77.2 34 77.9 33.7 78.7 33.9 79.2 34.4 79.8 34.9 80 35.6 79.8 36.4 79.5 38.4 78.9 40.4 77.9 42.2 76.9 43.9 75.4 45.3 73.6 46.3 73.4 48.8 72.6 51.3 71.4 53.5 72.7 55 74.1 56.3 75.8 57.3 76.4 57.7 76.8 58.4 76.8 59.1 76.8 59.8 76.4 60.5 75.7 60.8 75 61.1 74.3 61.1 73.7 60.7 72 59.6 70.4 58.2 69 56.7 68 57.5 66.9 58.3 65.9 59 64.2 60.1 62.7 61.3 61.4 62.8 59.8 64.7 59.9 68.4 59.9 71.6 59.9 72.1 59.9 72.5 59.9 73L59.9 82 67.9 82C67.9 69 74.1 68.3 74.9 68.1 77.5 67.4 84.4 63.8 85.9 56.4 86.1 56 86 55.5 86 55.1 85.9 55.1 85.9 55.1 86 55.1Z" fill="#FFB600"/></svg>