<svg viewBox="0 0 96 96" xmlns="http://www.w3.org/2000/svg" xmlns:xlink="http://www.w3.org/1999/xlink" id="Icons_Aspiration1_M" overflow="hidden"><g id="Icons"><path d="M56.2583 61.8562 56.2583 42.0962C60.9233 35.5033 63.1798 27.507 62.6494 19.448 62.5309 17.3231 60.7122 15.6967 58.5873 15.8152 56.4625 15.9338 54.836 17.7524 54.9546 19.8773 54.9553 19.8906 54.9561 19.9039 54.957 19.9172 55.3844 26.0571 53.7219 32.161 50.24 37.2361L49.492 37.2361C48.4915 37.2675 47.4991 37.4256 46.5384 37.7066 46.2799 37.7715 46.0249 37.8493 45.7742 37.9397 36.7759 41.2118 30.5195 47.1749 26.1024 56.695 25.2187 58.5866 25.8976 60.8401 27.6791 61.9288 28.9014 62.5857 30.3825 62.5345 31.5565 61.7948 32.2215 61.3601 32.7443 60.7398 33.06 60.0108 34.8322 55.9103 37.5229 52.2718 40.9243 49.376L40.9243 64.9622 38.5181 69.834 27.0752 69.085C24.9514 68.9521 23.122 70.566 22.9891 72.6898 22.8565 74.8079 24.4616 76.6343 26.5791 76.775L40.5801 77.693C40.5869 77.6935 40.6885 77.6966 40.6953 77.6969 40.71 77.6976 40.8208 77.7008 40.8359 77.7008 42.3027 77.7055 43.6435 76.8722 44.2886 75.5548L49.2472 65.522C49.2496 65.517 49.2556 65.515 49.2606 65.5174 49.2618 65.518 49.2629 65.5189 49.2638 65.5199L54.99 72.2893 53.9487 87.0564C53.8041 89.1718 55.3943 91.0072 57.5087 91.1653 57.6039 91.1731 57.7001 91.1763 57.7958 91.1763 59.8143 91.1673 61.4864 89.6073 61.6352 87.5942L62.787 71.2664C62.8618 70.2634 62.5385 69.2713 61.887 68.5051ZM59.635 87.5262C59.5676 88.4827 58.7532 89.2131 57.795 89.1762L57.6622 89.171C56.6434 89.0975 55.8755 88.2146 55.9439 87.1955L57.0139 72.0241C57.0322 71.7638 56.9482 71.5066 56.7796 71.3074L49.7961 63.0526C49.4394 62.631 48.8084 62.5783 48.3868 62.935 48.2821 63.0235 48.1968 63.1326 48.1361 63.2555L42.4729 74.7142C42.1662 75.3345 41.5267 75.7197 40.835 75.7007L40.7109 75.6973 26.7178 74.78C25.6969 74.7083 24.9274 73.8226 24.999 72.8017 25.07 71.7906 25.9401 71.0241 26.9521 71.0813L39.0537 71.8735C39.4574 71.9016 39.8378 71.6821 40.0156 71.3186L42.821 65.6386C42.889 65.501 42.9243 65.3496 42.9243 65.1962L42.9243 47.3745C42.9243 46.8222 42.4766 46.3745 41.9244 46.3744 41.7217 46.3744 41.5238 46.436 41.3569 46.551 37.1 49.4824 33.772 53.6543 31.1831 59.3049 30.7565 60.2356 29.6563 60.6442 28.7256 60.2177 28.6555 60.1855 28.5875 60.1491 28.522 60.1085 27.7217 59.57 27.4399 58.5247 27.861 57.6569 32.0433 48.5807 37.9546 42.9114 46.4575 39.82 46.6655 39.7443 46.814 39.7035 47.0775 39.6332 47.873 39.3986 48.6949 39.2653 49.5238 39.2362L50.76 39.2362C51.08 39.237 51.3809 39.084 51.5686 38.8248 55.5194 33.2968 57.423 26.5662 56.9528 19.7878 56.8879 18.7661 57.6635 17.8852 58.6852 17.8203 59.707 17.7554 60.5878 18.531 60.6527 19.5527 60.6532 19.56 60.6536 19.5673 60.654 19.5746 61.162 27.2801 58.9686 34.9217 54.4511 41.1846 54.3264 41.3561 54.259 41.5626 54.2585 41.7746L54.2585 62.2224C54.2585 62.4591 54.3424 62.688 54.4953 62.8687L60.36 69.7971C60.6728 70.1654 60.8278 70.642 60.7916 71.1238Z"/><path d="M69.871 11.24 69.071 10.78C68.9736 10.7213 68.9239 10.6075 68.947 10.4961L69.147 9.572C69.1693 9.45315 69.118 9.33255 69.017 9.2661 68.9126 9.21347 68.7876 9.22265 68.692 9.29L67.975 9.9131C67.8913 9.99361 67.7637 10.0072 67.665 9.946L66.865 9.4851C66.7663 9.4239 66.6386 9.43749 66.555 9.5181 66.4718 9.59377 66.4406 9.71106 66.475 9.8181L66.6071 10.2181 66.7681 10.7342C66.7796 10.7859 66.7796 10.8395 66.7681 10.8912 66.7577 10.9414 66.7309 10.9867 66.692 11.0201L65.965 11.6952C65.8757 11.7709 65.8486 11.8973 65.899 12.003 65.9452 12.1007 66.0435 12.163 66.1516 12.163L66.175 12.162 67.157 12.0758 67.1805 12.0749C67.2883 12.0749 67.3864 12.1373 67.4321 12.2349L67.84 13.1238C67.8857 13.2214 67.9838 13.2838 68.0916 13.2838L68.1151 13.2829C68.2315 13.2728 68.328 13.1888 68.3541 13.0749L68.5891 12.1159C68.6133 12.0113 68.6989 11.932 68.8051 11.9159L69.7631 11.7389C69.8771 11.7187 69.9694 11.6346 70 11.5229 70.0167 11.4114 69.9661 11.3005 69.871 11.24Z"/><path d="M49.2 13.519 49.665 13.802C49.7088 13.8318 49.7456 13.8707 49.773 13.916 49.7986 13.9605 49.8084 14.0122 49.801 14.063L49.701 15.0449C49.6855 15.1612 49.7493 15.2737 49.8571 15.3201 49.9637 15.3672 50.0884 15.3433 50.17 15.2601L50.8521 14.5601C50.9338 14.4769 51.0586 14.4533 51.165 14.501L52.065 14.901C52.1713 14.9478 52.2955 14.9239 52.3769 14.841 52.4582 14.7576 52.4752 14.6309 52.4189 14.529L51.9579 13.653C51.9063 13.5587 51.9179 13.4424 51.987 13.36L52.587 12.6029C52.6825 12.487 52.666 12.3156 52.5501 12.2202 52.5013 12.18 52.4401 12.1581 52.377 12.1581 52.3616 12.1581 52.3462 12.1594 52.331 12.162L51.4249 12.3349C51.3127 12.3533 51.2008 12.3003 51.1439 12.2018L50.6759 11.3788C50.622 11.2874 50.5238 11.2312 50.4177 11.2311 50.2823 11.2297 50.1668 11.3289 50.1477 11.463L50.0227 12.3998C50.0125 12.515 49.925 12.6083 49.8107 12.6259L48.9058 12.799C48.7915 12.8165 48.704 12.9097 48.6937 13.0248 48.6813 13.1368 48.7357 13.2456 48.8327 13.3029Z"/><path d="M44.781 35.968C48.0947 35.968 50.781 33.2817 50.781 29.968 50.781 26.6543 48.0947 23.968 44.781 23.968 41.4673 23.968 38.781 26.6543 38.781 29.968 38.781 33.2817 41.4673 35.968 44.781 35.968ZM43.6947 26.112C45.8305 25.5182 48.0433 26.7683 48.6371 28.9041 48.8326 29.6076 48.8326 30.3511 48.637 31.0546 48.2695 32.403 47.2161 33.4564 45.8677 33.824 43.7319 34.418 41.519 33.1682 40.925 31.0324 40.7293 30.3287 40.7293 29.5848 40.9251 28.8811 41.2927 27.5327 42.3462 26.4793 43.6947 26.112Z"/><path d="M63.2711 5.937 61.152 5.937C60.8908 5.9316 60.6604 5.76463 60.574 5.5181L59.881 3.4581C59.785 3.19607 59.5426 3.01607 59.264 3 58.9971 3.01521 58.7603 3.17625 58.648 3.4189L57.954 5.4789C57.8835 5.72733 57.6566 5.8988 57.3984 5.8989L57.377 5.8989 55.2581 5.8989 55.2361 5.8984C54.9776 5.89855 54.7505 6.07033 54.6801 6.3191 54.604 6.56561 54.6791 6.83384 54.872 7.0051L55.604 7.6541 56.5291 8.4929C56.6141 8.57797 56.6799 8.68027 56.722 8.7929 56.7601 8.90406 56.7601 9.02474 56.722 9.1359L56.067 11.3109C55.9782 11.5669 56.0741 11.8505 56.3 12 56.52 12.1529 56.812 12.1529 57.032 12L58.881 10.7C59.1014 10.5483 59.3926 10.5483 59.613 10.7L61.46 12C61.68 12.1529 61.972 12.1529 62.192 12 62.4108 11.8465 62.5043 11.5686 62.423 11.314L61.768 9.1389C61.693 8.90377 61.7696 8.6467 61.9611 8.491L63.6611 7.041C63.9269 6.8228 63.9655 6.43043 63.7473 6.1646 63.6302 6.02188 63.4557 5.93851 63.2711 5.937ZM59.7532 8.6345C59.4148 8.5692 59.0669 8.57012 58.7288 8.6372 58.7072 8.4703 58.669 8.30598 58.6147 8.1467L58.6055 8.12 58.5955 8.0932C58.5438 7.95469 58.4814 7.82041 58.4089 7.6916 58.7265 7.55508 59.0137 7.35673 59.2538 7.1081 59.4853 7.35141 59.7609 7.54857 60.066 7.6891 59.9013 7.98091 59.795 8.30204 59.7532 8.6345Z"/></g></svg>